<svg width="14" height="29" viewBox="0 0 14 29" fill="none" xmlns="http://www.w3.org/2000/svg">
<g id="Group">
<path id="Vector" d="M5.53499 1.89146L5.56505 0L9.15244 0.0502565L9.12238 1.94172C12.2238 2.56764 13.782 4.76977 13.7219 8.22375L13.7068 9.02328L9.55828 8.96389L9.57832 7.9085C9.60838 6.09014 8.82176 5.38656 7.42889 5.36828C6.03602 5.35001 5.22435 6.02618 5.19429 7.84454C5.1041 13.0803 13.6718 13.455 13.5515 20.7239C13.4914 24.1778 11.8229 26.3708 8.70151 26.9099L8.67145 28.7648L5.08406 28.7146L5.11412 26.8597C1.97265 26.2338 0.419448 23.9951 0.474561 20.5411L0.504622 18.7958L4.65317 18.8552L4.6181 20.8563C4.58804 22.6747 5.45482 23.3417 6.84769 23.36C8.24557 23.3783 9.1324 22.7387 9.16246 20.9203C9.25265 15.6845 0.684995 15.3099 0.805242 8.041C0.865366 4.62814 2.45865 2.46712 5.53499 1.89146Z" fill="#3B3B3B"/>
</g>
</svg>
